<?xml version="1.0" standalone="no"?><!DOCTYPE svg PUBLIC "-//W3C//DTD SVG 1.1//EN" "http://www.w3.org/Graphics/SVG/1.1/DTD/svg11.dtd"><svg class="icon" height="512" viewBox="0 0 1024 1024" version="1.1" xmlns="http://www.w3.org/2000/svg"><path d="M428.02176 870.35904a29.11744 29.11744 0 0 1-20.65408-8.54016 29.17376 29.17376 0 0 1 0.04096-41.24672l69.64224-69.59104a29.16352 29.16352 0 1 1 41.22112 41.27232l-69.64224 69.59104a29.10208 29.10208 0 0 1-20.608 8.51456M186.04032 711.82848a29.22496 29.22496 0 0 1-20.65408-8.56064 29.184 29.184 0 0 1 0.03584-41.24672l43.91936-43.87328a29.184 29.184 0 0 1 41.25696 0.02048 29.184 29.184 0 0 1-0.01536 41.2416l-43.9296 43.89888a29.15328 29.15328 0 0 1-20.61312 8.51968M572.63616 711.82848a28.99968 28.99968 0 0 1-20.608-8.56064 29.14304 29.14304 0 0 1 0.02048-41.24672l43.9296-43.87328a29.14816 29.14816 0 0 1 41.22624 0.02048 29.14816 29.14816 0 0 1-0.02048 41.2416l-43.90912 43.89888a29.19424 29.19424 0 0 1-20.63872 8.51968M697.82528 781.7984a29.1072 29.1072 0 0 1-20.64896-8.53504 29.20448 29.20448 0 0 1 0.0256-41.27232l114.00704-113.8432a29.16352 29.16352 0 0 1 41.2672 0.04096 29.14304 29.14304 0 0 1-0.04608 41.22112l-113.99168 113.88416a29.17888 29.17888 0 0 1-20.61312 8.50432M277.84192 812.41088a29.10208 29.10208 0 0 1-20.64896-8.55552 29.14816 29.14816 0 0 1 0.02048-41.23648l144.59904-144.47104a29.184 29.184 0 0 1 41.2672 0.02048 29.184 29.184 0 0 1-0.03072 41.2416l-144.62464 144.4608a29.07648 29.07648 0 0 1-20.5824 8.54016" fill="#1291F9" /><path d="M885.46304 237.34272c-16.08704-104.33536-106.70592-183.51104-214.1952-183.51104-52.68992 0-101.9648 18.62656-140.5184 51.59424a216.13056 216.13056 0 0 1 44.37504 17.69984c28.032-18.31424 61.16864-28.40576 96.14336-28.40576 92.48256 0 169.56928 72.21248 175.48288 164.39808a20.4288 20.4288 0 0 0 21.82144 19.08224c2.2016-0.14848 4.77184-0.3072 7.17824-0.3072 56.38144 0 102.24128 45.84448 102.24128 102.1952 0 55.7312-45.34784 101.51936-101.11488 102.1184l-21.5296-0.00512-46.8224-0.0256a144.13312 144.13312 0 0 1-27.71968 40.8832l74.5216 0.0256h21.84192c78.1312-0.768 141.70112-64.91648 141.70112-143.0016 0.01024-75.61728-58.98752-137.73824-133.40672-142.74048z" fill="#1291F9" /><path d="M649.61024 570.8288h-21.632l-470.74816-0.18432c-78.58176 0-142.5152-64.10752-142.5152-142.90944 0-68.03456 46.99136-124.89728 110.95552-139.36128a98.06336 98.06336 0 0 1-1.5616-17.48992c0-53.66272 43.66336-97.32608 97.32608-97.32608 17.82272 0 34.91328 4.75136 49.81248 13.6704 40.84736-54.016 103.8848-85.65248 172.65664-85.65248 107.4944 0 198.10816 79.16544 214.1952 183.5008 74.4192 5.00224 133.42208 67.11808 133.42208 142.76096 0 78.07488-63.56992 142.22336-141.70112 142.99648l-0.20992-0.00512z m-21.61152-40.88832l21.5296 0.00512c55.77216-0.59904 101.12-46.39232 101.12-102.10816 0-56.35584-45.86496-102.20032-102.2464-102.20032a99.84 99.84 0 0 0-7.18336 0.31232 20.4288 20.4288 0 0 1-21.81632-19.09248c-5.9136-92.1856-82.9952-164.4032-175.48288-164.4032-62.01856 0-118.272 31.70816-150.4768 84.8128a20.47488 20.47488 0 0 1-15.06304 9.70752 20.4544 20.4544 0 0 1-16.91136-5.88288 56.07424 56.07424 0 0 0-40.01792-16.64c-31.12448 0-56.44288 25.31328-56.44288 56.43776 0 8.87808 2.01728 17.39264 5.98528 25.29792a20.4032 20.4032 0 0 1-0.65536 19.5584 20.39808 20.39808 0 0 1-16.79872 10.04032 101.71392 101.71392 0 0 0-97.93024 101.94944c0 56.25344 45.58848 102.03136 101.632 102.03136h21.02272l449.73568 0.17408z" fill="#1291F9" /></svg>